<svg width="30" height="24" viewBox="0 0 30 24" fill="none" xmlns="http://www.w3.org/2000/svg">
<path d="M15 0C15.7969 0 16.5 0.703125 16.5 1.5V4.5H22.125C23.9531 4.5 25.5 6.04688 25.5 7.875V20.625C25.5 22.5 23.9531 24 22.125 24H7.875C6 24 4.5 22.5 4.5 20.625V7.875C4.5 6.04688 6 4.5 7.875 4.5H13.5V1.5C13.5 0.703125 14.1562 0 15 0ZM9.75 18C9.32812 18 9 18.375 9 18.75C9 19.1719 9.32812 19.5 9.75 19.5H11.25C11.625 19.5 12 19.1719 12 18.75C12 18.375 11.625 18 11.25 18H9.75ZM14.25 18C13.8281 18 13.5 18.375 13.5 18.75C13.5 19.1719 13.8281 19.5 14.25 19.5H15.75C16.125 19.5 16.5 19.1719 16.5 18.75C16.5 18.375 16.125 18 15.75 18H14.25ZM18.75 18C18.3281 18 18 18.375 18 18.75C18 19.1719 18.3281 19.5 18.75 19.5H20.25C20.625 19.5 21 19.1719 21 18.75C21 18.375 20.625 18 20.25 18H18.75ZM12.375 12C12.375 11.3438 12 10.7344 11.4375 10.4062C10.8281 10.0781 10.125 10.0781 9.5625 10.4062C8.95312 10.7344 8.625 11.3438 8.625 12C8.625 12.7031 8.95312 13.3125 9.5625 13.6406C10.125 13.9688 10.8281 13.9688 11.4375 13.6406C12 13.3125 12.375 12.7031 12.375 12ZM19.5 13.875C20.1562 13.875 20.7656 13.5469 21.0938 12.9375C21.4219 12.375 21.4219 11.6719 21.0938 11.0625C20.7656 10.5 20.1562 10.125 19.5 10.125C18.7969 10.125 18.1875 10.5 17.8594 11.0625C17.5312 11.6719 17.5312 12.375 17.8594 12.9375C18.1875 13.5469 18.7969 13.875 19.5 13.875ZM2.25 10.5H3V19.5H2.25C0.984375 19.5 0 18.5156 0 17.25V12.75C0 11.5312 0.984375 10.5 2.25 10.5ZM27.75 10.5C28.9688 10.5 30 11.5312 30 12.75V17.25C30 18.5156 28.9688 19.5 27.75 19.5H27V10.5H27.75Z" fill="#495057"/>
</svg>
