<svg width="27" height="24" viewBox="0 0 27 24" fill="none" xmlns="http://www.w3.org/2000/svg">
<path d="M22.5938 9C24.1875 9 27 10.3594 27 12C27 13.6875 24.1875 15 22.5938 15H17.1094L12.4219 23.25C12.1406 23.7188 11.625 24 11.1094 24H8.48438C7.96875 24 7.59375 23.5312 7.73438 23.0625L10.0312 15H5.25L3.1875 17.7188C3.04688 17.9062 2.85938 18 2.625 18H0.65625C0.28125 18 0 17.7188 0 17.3438C0 17.2969 0 17.25 0 17.2031L1.5 12L0 6.84375C0 6.79688 0 6.75 0 6.65625C0 6.32812 0.28125 6 0.65625 6H2.625C2.85938 6 3.04688 6.14062 3.1875 6.32812L5.25 9H10.0312L7.73438 0.984375C7.59375 0.515625 7.96875 0 8.48438 0H11.1094C11.625 0 12.1406 0.328125 12.4219 0.796875L17.1094 9H22.5938Z" fill="#495057"/>
</svg>
