<svg width="25" height="22" viewBox="0 0 25 22" fill="none" xmlns="http://www.w3.org/2000/svg">
<path d="M23.625 2.85938L16.125 8.85938C15.5625 9.32812 14.8125 9.32812 14.25 8.90625L9.1875 5.10938L2.625 10.3594C1.96875 10.875 1.03125 10.7812 0.515625 10.125C0 9.51562 0.09375 8.53125 0.75 8.01562L8.25 2.01562C8.76562 1.59375 9.51562 1.59375 10.0781 2.01562L15.1406 5.8125L21.75 0.515625C22.3594 0 23.3438 0.140625 23.8594 0.75C24.375 1.40625 24.2344 2.34375 23.625 2.85938ZM7.6875 10.6875C7.6875 9.89062 8.34375 9.1875 9.1875 9.1875C9.98438 9.1875 10.6875 9.89062 10.6875 10.6875V19.6875C10.6875 20.5312 9.98438 21.1875 9.1875 21.1875C8.34375 21.1875 7.6875 20.5312 7.6875 19.6875V10.6875ZM1.6875 15.1875C1.6875 14.3906 2.34375 13.6875 3.1875 13.6875C3.98438 13.6875 4.6875 14.3906 4.6875 15.1875V19.6875C4.6875 20.5312 3.98438 21.1875 3.1875 21.1875C2.34375 21.1875 1.6875 20.5312 1.6875 19.6875V15.1875ZM15.1875 12.1875C15.9844 12.1875 16.6875 12.8906 16.6875 13.6875V19.6875C16.6875 20.5312 15.9844 21.1875 15.1875 21.1875C14.3438 21.1875 13.6875 20.5312 13.6875 19.6875V13.6875C13.6875 12.8906 14.3438 12.1875 15.1875 12.1875ZM19.6875 10.6875C19.6875 9.89062 20.3438 9.1875 21.1875 9.1875C21.9844 9.1875 22.6875 9.89062 22.6875 10.6875V19.6875C22.6875 20.5312 21.9844 21.1875 21.1875 21.1875C20.3438 21.1875 19.6875 20.5312 19.6875 19.6875V10.6875Z" fill="#495057"/>
</svg>
