<svg width="35" height="40" viewBox="0 0 35 40" fill="none" xmlns="http://www.w3.org/2000/svg">
<path d="M7.5 0H30H32.5C33.8281 0 35 1.17188 35 2.5V27.5C35 28.9062 33.8281 30 32.5 30V35C33.8281 35 35 36.1719 35 37.5C35 38.9062 33.8281 40 32.5 40H30H7.5C3.35938 40 0 36.6406 0 32.5V7.5C0 3.35938 3.35938 0 7.5 0ZM7.5 30C6.09375 30 5 31.1719 5 32.5C5 33.9062 6.09375 35 7.5 35H27.5V30H7.5ZM10 11.25C10 11.9531 10.5469 12.5 11.25 12.5H26.25C26.875 12.5 27.5 11.9531 27.5 11.25C27.5 10.625 26.875 10 26.25 10H11.25C10.5469 10 10 10.625 10 11.25ZM11.25 15C10.5469 15 10 15.625 10 16.25C10 16.9531 10.5469 17.5 11.25 17.5H26.25C26.875 17.5 27.5 16.9531 27.5 16.25C27.5 15.625 26.875 15 26.25 15H11.25Z" fill="#495057"/>
</svg>
