<svg width="24" height="24" viewBox="0 0 24 24" fill="none" xmlns="http://www.w3.org/2000/svg">
<path d="M0 10.5469C0 4.73438 4.6875 0 10.5 0H12C16.4531 0 20.1562 3.28125 20.8594 7.54688C20.9531 8.15625 21.1875 8.71875 21.5625 9.23438L23.5312 11.6719C23.8125 12.0469 24 12.5156 24 12.9844C24 14.1094 23.0625 15 21.9375 15H21V18C21 19.6875 19.6406 21 18 21H15V22.5C15 23.3438 14.2969 24 13.5 24H4.5C3.65625 24 3 23.3438 3 22.5V19.125C3 18.3281 2.67188 17.5781 2.15625 16.9688C0.75 15.1406 0 12.8906 0 10.5469ZM13.3594 9.75H15.75C16.9688 9.75 18 8.76562 18 7.5C18 6.28125 16.9688 5.25 15.75 5.25C15.7031 5.25 15.6562 5.25 15.6094 5.29688C15.2812 4.40625 14.4375 3.75 13.5 3.75C13.0781 3.75 12.7031 3.89062 12.375 4.07812C11.9531 3.42188 11.2969 3 10.5 3C9.70312 3 9 3.42188 8.57812 4.07812C8.25 3.89062 7.875 3.75 7.5 3.75C6.23438 3.75 5.25 4.78125 5.25 6C3.98438 6 3 7.03125 3 8.25C3 9.23438 3.60938 10.0781 4.5 10.4062C4.5 10.4531 4.5 10.5 4.5 10.5C4.5 11.7656 5.48438 12.75 6.75 12.75C6.98438 12.75 7.26562 12.7031 7.5 12.6562V13.5C7.5 14.3438 8.15625 15 9 15C9.79688 15 10.5 14.3438 10.5 13.5V12.6562C10.7344 12.75 10.9688 12.75 11.25 12.75C12.4688 12.75 13.5 11.7656 13.5 10.5C13.5 10.2656 13.4531 9.98438 13.3594 9.75ZM7.5 8.25V8.39062H7.45312C7.45312 8.34375 7.5 8.29688 7.5 8.25Z" fill="#495057"/>
</svg>
