<svg width="40" height="38" viewBox="0 0 40 38" fill="none" xmlns="http://www.w3.org/2000/svg">
<path d="M14.375 3.75C13.9844 3.75 13.75 4.0625 13.75 4.375V7.5H26.25V4.375C26.25 4.0625 25.9375 3.75 25.625 3.75H14.375ZM10 4.375C10 2.03125 11.9531 0 14.375 0H25.625C27.9688 0 30 2.03125 30 4.375V7.5H35C37.7344 7.5 40 9.76562 40 12.5V20H25H15H0V12.5C0 9.76562 2.1875 7.5 5 7.5H10V4.375ZM40 22.5V32.5C40 35.3125 37.7344 37.5 35 37.5H5C2.1875 37.5 0 35.3125 0 32.5V22.5H15V25C15 26.4062 16.0938 27.5 17.5 27.5H22.5C23.8281 27.5 25 26.4062 25 25V22.5H40Z" fill="#495057"/>
</svg>
