<svg width="36" height="37" viewBox="0 0 36 37" fill="none" xmlns="http://www.w3.org/2000/svg">
<path d="M30.8156 18.3656C30.8156 13.6882 28.2706 9.35474 24.2123 6.94727C20.0852 4.60858 15.0639 4.60858 11.0056 6.94727C6.87849 9.35474 4.40223 13.6882 4.40223 18.3656C4.40223 23.1117 6.87849 27.4452 11.0056 29.8526C15.0639 32.1913 20.0852 32.1913 24.2123 29.8526C28.2706 27.4452 30.8156 23.1117 30.8156 18.3656ZM0 18.3656C0 12.1061 3.30168 6.3282 8.80447 3.1641C14.2385 -1.03191e-05 20.9106 -1.03191e-05 26.4134 3.1641C31.8474 6.3282 35.2179 12.1061 35.2179 18.3656C35.2179 24.6938 31.8474 30.4717 26.4134 33.6358C20.9106 36.7999 14.2385 36.7999 8.80447 33.6358C3.30168 30.4717 0 24.6938 0 18.3656ZM17.6089 23.8684C19.5349 23.8684 21.3233 22.8366 22.3551 21.117C23.3181 19.4661 23.3181 17.3338 22.3551 15.6142C21.3233 13.9633 19.5349 12.8628 17.6089 12.8628C15.6142 12.8628 13.8258 13.9633 12.794 15.6142C11.831 17.3338 11.831 19.4661 12.794 21.117C13.8258 22.8366 15.6142 23.8684 17.6089 23.8684ZM17.6089 8.46053C21.117 8.46053 24.3499 10.3865 26.1383 13.413C27.9267 16.5084 27.9267 20.2915 26.1383 23.3181C24.3499 26.4134 21.117 28.2706 17.6089 28.2706C14.0321 28.2706 10.7992 26.4134 9.01082 23.3181C7.22242 20.2915 7.22242 16.5084 9.01082 13.413C10.7992 10.3865 14.0321 8.46053 17.6089 8.46053ZM15.4078 18.3656C15.4078 17.1962 16.3708 16.1644 17.6089 16.1644C18.7783 16.1644 19.8101 17.1962 19.8101 18.3656C19.8101 19.6037 18.7783 20.5667 17.6089 20.5667C16.3708 20.5667 15.4078 19.6037 15.4078 18.3656Z" fill="#F8F9FA"/>
</svg>
