<svg width="18" height="18" viewBox="0 0 18 18" fill="none" xmlns="http://www.w3.org/2000/svg">
<path d="M9 18C4.00781 18 0 13.9922 0 9C0 4.04297 4.00781 0 9 0C13.957 0 18 4.04297 18 9C18 13.9922 13.957 18 9 18ZM12.9727 7.34766H12.9375C13.2891 7.03125 13.2891 6.50391 12.9375 6.15234C12.6211 5.83594 12.0938 5.83594 11.7773 6.15234L7.875 10.0898L6.22266 8.4375C5.87109 8.08594 5.34375 8.08594 5.02734 8.4375C4.67578 8.75391 4.67578 9.28125 5.02734 9.59766L7.27734 11.8477C7.59375 12.1992 8.12109 12.1992 8.47266 11.8477L12.9727 7.34766Z" fill="#1C2D80"/>
</svg>
