<svg width="51" height="40" viewBox="0 0 51 40" fill="none" xmlns="http://www.w3.org/2000/svg">
<path d="M16.4062 27.5C13.3594 27.5 10.625 26.875 8.20312 25.7031C7.57812 26.0156 6.95312 26.25 6.25 26.5625C4.76562 27.1094 3.04688 27.5 1.40625 27.5C0.859375 27.5 0.390625 27.1875 0.15625 26.6406C0 26.1719 0.234375 25.625 0.625 25.3125V25.2344H0.703125C0.78125 25.1562 0.9375 25 1.09375 24.9219C1.32812 24.6875 1.71875 24.2969 2.10938 23.8281C2.5 23.2812 2.96875 22.5781 3.20312 21.875C1.25 19.6094 0.15625 16.7969 0.15625 13.75C0.15625 6.17188 7.42188 0 16.4062 0C25.3125 0 32.6562 6.17188 32.6562 13.75C32.6562 21.4062 25.3125 27.5 16.4062 27.5ZM35.1562 13.75H35.0781C35.0781 13.3594 35.0781 12.9688 35.0781 12.5781C43.5156 13.0469 50.0781 19.0625 50.0781 26.25C50.0781 29.2969 48.9844 32.1094 47.0312 34.375C47.2656 35.0781 47.7344 35.7031 48.125 36.25C48.5156 36.7969 48.9062 37.1094 49.1406 37.4219C49.2969 37.5 49.4531 37.6562 49.5312 37.6562C49.5312 37.7344 49.6094 37.7344 49.6094 37.7344C50.0781 38.125 50.2344 38.6719 50.0781 39.1406C49.9219 39.6875 49.375 40 48.9062 40C47.1875 40 45.4688 39.6094 43.9844 39.0625C43.2812 38.75 42.6562 38.5156 42.0312 38.2031C39.6094 39.375 36.875 40 33.9062 40C26.4062 40 20.0781 35.7812 18.2031 29.9219C27.3438 29.1406 35.1562 22.5781 35.1562 13.75Z" fill="#F8F9FA"/>
</svg>
