<svg width="24" height="24" viewBox="0 0 24 24" fill="none" xmlns="http://www.w3.org/2000/svg">
<path d="M8.25 1.125V3H10.875V1.125C10.875 0.515625 11.3438 0 12 0C12.6094 0 13.125 0.515625 13.125 1.125V3H15.75V1.125C15.75 0.515625 16.2188 0 16.875 0C17.4844 0 18 0.515625 18 1.125V3C19.6406 3 21 4.35938 21 6H22.875C23.4844 6 24 6.51562 24 7.125C24 7.78125 23.4844 8.25 22.875 8.25H21V10.875H22.875C23.4844 10.875 24 11.3906 24 12C24 12.6562 23.4844 13.125 22.875 13.125H21V15.75H22.875C23.4844 15.75 24 16.2656 24 16.875C24 17.5312 23.4844 18 22.875 18H21C21 19.6875 19.6406 21 18 21V22.875C18 23.5312 17.4844 24 16.875 24C16.2188 24 15.75 23.5312 15.75 22.875V21H13.125V22.875C13.125 23.5312 12.6094 24 12 24C11.3438 24 10.875 23.5312 10.875 22.875V21H8.25V22.875C8.25 23.5312 7.73438 24 7.125 24C6.46875 24 6 23.5312 6 22.875V21C4.3125 21 3 19.6875 3 18H1.125C0.46875 18 0 17.5312 0 16.875C0 16.2656 0.46875 15.75 1.125 15.75H3V13.125H1.125C0.46875 13.125 0 12.6562 0 12C0 11.3906 0.46875 10.875 1.125 10.875H3V8.25H1.125C0.46875 8.25 0 7.78125 0 7.125C0 6.51562 0.46875 6 1.125 6H3C3 4.35938 4.3125 3 6 3V1.125C6 0.515625 6.46875 0 7.125 0C7.73438 0 8.25 0.515625 8.25 1.125ZM7.5 6C6.65625 6 6 6.70312 6 7.5V16.5C6 17.3438 6.65625 18 7.5 18H16.5C17.2969 18 18 17.3438 18 16.5V7.5C18 6.70312 17.2969 6 16.5 6H7.5ZM16.5 7.5V16.5H7.5V7.5H16.5Z" fill="#495057"/>
</svg>
