<svg width="18" height="15" viewBox="0 0 18 15" fill="none" xmlns="http://www.w3.org/2000/svg">
<path d="M0 0.9375C0 0.429688 0.390625 0 0.9375 0H16.5625C17.0703 0 17.5 0.429688 17.5 0.9375C17.5 1.48438 17.0703 1.875 16.5625 1.875H0.9375C0.390625 1.875 0 1.48438 0 0.9375ZM0 7.1875C0 6.67969 0.390625 6.25 0.9375 6.25H16.5625C17.0703 6.25 17.5 6.67969 17.5 7.1875C17.5 7.73438 17.0703 8.125 16.5625 8.125H0.9375C0.390625 8.125 0 7.73438 0 7.1875ZM17.5 13.4375C17.5 13.9844 17.0703 14.375 16.5625 14.375H0.9375C0.390625 14.375 0 13.9844 0 13.4375C0 12.9297 0.390625 12.5 0.9375 12.5H16.5625C17.0703 12.5 17.5 12.9297 17.5 13.4375Z" fill="white"/>
</svg>
