<svg width="40" height="40" viewBox="0 0 40 40" fill="none" xmlns="http://www.w3.org/2000/svg">
<path d="M0 17.5781C0 7.89062 7.8125 0 17.5 0H19.375C26.7969 0 33.5156 5.46875 34.7656 12.5781C34.9219 13.5938 35.3125 14.5312 35.9375 15.3906L39.2188 19.4531C39.6875 20.0781 40 20.8594 40 21.6406C40 23.5156 38.4375 25 36.5625 25H35V30C35 32.8125 32.7344 35 30 35H25V37.5C25 38.9062 23.8281 40 22.5 40H7.5C6.09375 40 5 38.9062 5 37.5V31.875C5 30.5469 4.45312 29.2969 3.59375 28.2812C1.25 25.2344 0 21.4844 0 17.5781ZM27.5 17.5C28.8281 17.5 30 16.4062 30 15C30 13.6719 28.8281 12.5 27.5 12.5C26.0938 12.5 25 13.6719 25 15C25 16.4062 26.0938 17.5 27.5 17.5Z" fill="#F8F9FA"/>
</svg>
