<svg width="36" height="36" viewBox="0 0 36 36" fill="none" xmlns="http://www.w3.org/2000/svg">
<path d="M17.6087 3.30146C9.69843 3.30146 3.30143 9.76725 3.30143 17.6087V20.3601C3.30143 21.3231 2.5448 22.011 1.65059 22.011C0.687603 22.011 -0.000246048 21.3231 -0.000246048 20.3601V17.6087C-0.000246048 7.91005 7.84123 -0.000212193 17.6087 -0.000212193C27.3074 -0.000212193 35.2176 7.91005 35.2176 17.6087V27.5825C35.2176 30.8842 32.4662 33.6356 29.0958 33.6356L21.5294 33.5668C20.9792 34.5986 19.8786 35.2177 18.7093 35.2177H16.5081C14.6509 35.2177 13.2065 33.7732 13.2065 31.916C13.2065 30.1276 14.6509 28.6143 16.5081 28.6143H18.7093C19.8786 28.6143 20.9792 29.3022 21.5294 30.2652L29.1646 30.3339C30.6778 30.3339 31.916 29.0958 31.916 27.5825V17.6087C31.916 9.76725 25.4502 3.30146 17.6087 3.30146ZM9.90478 14.3071H11.0053C12.1747 14.3071 13.2065 15.3388 13.2065 16.5082V24.2121C13.2065 25.4502 12.1747 26.4132 11.0053 26.4132H9.90478C7.42852 26.4132 5.50255 24.4872 5.50255 22.011V18.7093C5.50255 16.3018 7.42852 14.3071 9.90478 14.3071ZM25.3126 14.3071C27.7201 14.3071 29.7148 16.3018 29.7148 18.7093V22.011C29.7148 24.4872 27.7201 26.4132 25.3126 26.4132H24.212C22.9739 26.4132 22.0109 25.4502 22.0109 24.2121V16.5082C22.0109 15.3388 22.9739 14.3071 24.212 14.3071H25.3126Z" fill="#6C757D"/>
</svg>
