<svg width="40" height="40" viewBox="0 0 40 40" fill="none" xmlns="http://www.w3.org/2000/svg">
<path d="M0 17.5781C0 7.89062 7.8125 0 17.5 0H20C27.4219 0 33.5938 5.46875 34.7656 12.5781C34.9219 13.5938 35.3125 14.5312 35.9375 15.3906L39.2188 19.4531C39.6875 20.0781 40 20.8594 40 21.6406C40 23.5156 38.4375 25 36.5625 25H35V30C35 32.8125 32.7344 35 30 35H25V37.5C25 38.9062 23.8281 40 22.5 40H7.5C6.09375 40 5 38.9062 5 37.5V31.875C5 30.5469 4.45312 29.2969 3.59375 28.2812C1.25 25.2344 0 21.4844 0 17.5781ZM8.75 14.8438C8.75 16.0938 9.21875 17.2656 10.0781 18.2031L16.5625 24.6875C17.0312 25.1562 17.8906 25.1562 18.3594 24.6875L24.7656 18.2031C25.7031 17.2656 26.1719 16.0938 26.1719 14.8438C26.1719 12.1875 24.0625 10 21.4062 10C20.1562 10 18.9062 10.5469 18.0469 11.4062L17.4219 12.0312L16.875 11.4062C15.9375 10.5469 14.7656 10 13.5156 10C10.8594 10 8.67188 12.1875 8.67188 14.8438H8.75Z" fill="#F8F9FA"/>
</svg>
