<svg width="30" height="26" viewBox="0 0 30 26" fill="none" xmlns="http://www.w3.org/2000/svg">
<path d="M8.7804 0.00514439C8.85913 0.00500898 8.85913 0.00500898 8.93946 0.00487084C9.08455 0.00462795 9.22964 0.00463229 9.37473 0.00467936C9.53146 0.00468752 9.68818 0.00446739 9.8449 0.00427863C10.1517 0.00394812 10.4585 0.00383817 10.7654 0.00381594C11.0149 0.00379698 11.2644 0.003715 11.5138 0.0035888C12.2217 0.00323803 12.9296 0.00305409 13.6375 0.00308399C13.6947 0.00308638 13.6947 0.00308638 13.753 0.00308882C13.8103 0.00309126 13.8103 0.00309126 13.8687 0.00309375C14.4874 0.00310994 15.1061 0.00272871 15.7248 0.00216688C16.3605 0.00159411 16.9963 0.00131941 17.632 0.00135381C17.9888 0.00136702 18.3455 0.00125826 18.7022 0.000828737C19.0059 0.000465348 19.3097 0.000379779 19.6134 0.000649813C19.7683 0.000779608 19.9231 0.000783277 20.0779 0.000436516C20.2199 0.000121749 20.362 0.000181581 20.504 0.000527525C20.5791 0.000616992 20.6542 0.000317698 20.7294 0C21.3724 0.00258472 21.9535 0.133908 22.4463 0.568293C22.7301 0.879067 22.9204 1.26649 23.1243 1.63168C23.2456 1.84791 23.3704 2.06211 23.4947 2.27662C23.5449 2.36366 23.5951 2.45072 23.6452 2.53779C23.795 2.79778 23.9449 3.05768 24.0948 3.31756C24.1447 3.40388 24.1945 3.49021 24.2443 3.57654C24.2689 3.61928 24.2936 3.66201 24.319 3.70604C26.3361 7.20238 26.3361 7.20238 26.4108 7.3319C26.4606 7.41816 26.5104 7.50443 26.5601 7.59069C26.6852 7.80747 26.8102 8.02427 26.9352 8.24114C27.1751 8.65758 27.4157 9.07359 27.6584 9.48845C27.8879 9.88088 28.114 10.2752 28.3388 10.6704C28.4695 10.9001 28.6015 11.129 28.7361 11.3565C28.7614 11.3993 28.7866 11.442 28.8127 11.4861C28.8599 11.566 28.9075 11.6457 28.9552 11.7252C29.1999 12.1386 29.3415 12.5002 29.3468 12.9798C29.348 13.0131 29.3491 13.0464 29.3503 13.0807C29.3551 13.5616 29.1473 13.9549 28.911 14.3619C28.8861 14.4056 28.8613 14.4492 28.8356 14.4941C28.7633 14.6205 28.6904 14.7466 28.6172 14.8724C28.5899 14.9194 28.5899 14.9194 28.562 14.9673C28.4836 15.1016 28.4045 15.2355 28.3252 15.3692C28.1924 15.5936 28.0625 15.8195 27.9324 16.0453C27.8942 16.1115 27.8942 16.1115 27.8553 16.179C27.8032 16.2695 27.7511 16.36 27.699 16.4505C27.5735 16.6683 27.4479 16.886 27.3222 17.1037C27.2724 17.19 27.2226 17.2764 27.1728 17.3627C26.6748 18.226 26.1767 19.0893 25.6787 19.9526C25.654 19.9953 25.6293 20.0381 25.6039 20.0821C25.5542 20.1684 25.5044 20.2546 25.4546 20.3409C25.3295 20.5577 25.2045 20.7745 25.0796 20.9913C24.8396 21.4078 24.599 21.8238 24.3563 22.2387C24.1541 22.5844 23.9545 22.9316 23.7562 23.2796C23.5508 23.6398 23.3445 23.9995 23.1361 24.3579C23.1143 24.3955 23.0925 24.4331 23.07 24.4719C22.4804 25.483 22.4804 25.483 21.9308 25.7674C21.9058 25.7805 21.8808 25.7937 21.8551 25.8072C21.458 25.999 21.0161 26.0007 20.5836 25.9991C20.5304 25.9992 20.4773 25.9993 20.4241 25.9995C20.2794 25.9998 20.1346 25.9997 19.9899 25.9994C19.8333 25.9992 19.6767 25.9995 19.5201 25.9997C19.2138 26.0001 18.9075 26 18.6013 25.9998C18.3522 25.9996 18.1032 25.9996 17.8542 25.9997C17.8009 25.9997 17.8009 25.9997 17.7466 25.9997C17.6744 25.9997 17.6022 25.9998 17.5301 25.9998C16.8543 26 16.1785 25.9998 15.5027 25.9993C14.9235 25.999 14.3443 25.999 13.7651 25.9994C13.0916 25.9998 12.4181 26 11.7446 25.9997C11.6727 25.9997 11.6009 25.9997 11.529 25.9997C11.4936 25.9997 11.4582 25.9996 11.4218 25.9996C11.1732 25.9996 10.9246 25.9997 10.6761 25.9999C10.3729 26.0001 10.0698 26 9.76661 25.9996C9.61209 25.9994 9.45758 25.9993 9.30306 25.9996C9.16135 25.9998 9.01964 25.9997 8.87792 25.9993C8.80296 25.9991 8.728 25.9994 8.65303 25.9997C7.99169 25.9966 7.38454 25.8747 6.90199 25.3913C6.68528 25.1433 6.52142 24.8706 6.36152 24.5836C6.3065 24.4849 6.25084 24.3865 6.19522 24.2881C6.16668 24.2376 6.13818 24.1871 6.10971 24.1365C5.9769 23.901 5.84093 23.6673 5.70417 23.434C5.43599 22.9757 5.17049 22.5158 4.90543 22.0557C4.7808 21.8394 4.65602 21.6231 4.53125 21.4069C4.48145 21.3206 4.43164 21.2342 4.38183 21.1479C4.35718 21.1052 4.33253 21.0625 4.30713 21.0184C3.43553 19.5077 2.56393 17.9969 1.69234 16.4861C1.66768 16.4434 1.64301 16.4006 1.6176 16.3566C1.56789 16.2704 1.51818 16.1842 1.46848 16.0981C1.31699 15.8355 1.16542 15.5729 1.01378 15.3104C0.939012 15.1809 0.864385 15.0512 0.78977 14.9216C0.696093 14.7589 0.601741 14.5967 0.506813 14.4348C0.463698 14.3607 0.420585 14.2866 0.377474 14.2125C0.357973 14.1796 0.338471 14.1467 0.318379 14.1128C0.0334129 13.6208 -0.0707903 13.0941 0.048758 12.5316C0.186301 12.0396 0.470593 11.5959 0.730782 11.1608C0.867048 10.9327 0.999464 10.7024 1.13203 10.4721C1.17013 10.406 1.17013 10.406 1.209 10.3385C1.26114 10.248 1.31327 10.1575 1.36539 10.067C1.49086 9.84918 1.61651 9.63147 1.74214 9.41375C1.79195 9.32742 1.84176 9.24109 1.89156 9.15476C2.33981 8.37779 2.33981 8.37779 2.78806 7.60083C2.81272 7.55809 2.83737 7.51535 2.86278 7.47131C2.91255 7.38505 2.96232 7.29878 3.0121 7.21252C3.13718 6.99574 3.2622 6.77894 3.38713 6.56207C3.62708 6.14563 3.86771 5.72962 4.11039 5.31476C4.31262 4.969 4.51223 4.62182 4.71055 4.27382C4.93123 3.8866 5.15399 3.50068 5.3791 3.11602C5.5245 2.86747 5.66887 2.61836 5.81248 2.36877C5.91209 2.19571 6.01203 2.02285 6.11199 1.84999C6.16027 1.7663 6.20839 1.68253 6.25635 1.59866C6.32426 1.47994 6.39269 1.36153 6.46121 1.24316C6.48094 1.20835 6.50067 1.17355 6.52099 1.13769C6.83289 0.602491 7.22569 0.269683 7.81764 0.0792659C8.13708 0.00240197 8.45359 0.00473134 8.7804 0.00514439ZM8.98331 4.84034C8.92167 4.97904 8.84875 5.10523 8.76985 5.23476C8.72578 5.31121 8.68174 5.38769 8.63771 5.46417C8.58755 5.55123 8.53738 5.63828 8.48721 5.72534C8.44985 5.79019 8.44985 5.79019 8.41174 5.85635C8.28711 6.07266 8.16233 6.28888 8.03756 6.50511C7.98775 6.59144 7.93795 6.67776 7.88814 6.76409C7.39009 7.62739 6.89203 8.49068 6.39398 9.35398C6.36931 9.39674 6.34464 9.43949 6.31923 9.48354C6.26955 9.56964 6.21988 9.65575 6.1702 9.74185C6.04369 9.96114 5.91718 10.1804 5.79071 10.3997C5.76519 10.444 5.73967 10.4882 5.71338 10.5338C5.66292 10.6213 5.6125 10.7088 5.56212 10.7964C5.44773 10.995 5.33281 11.1932 5.21592 11.3904C5.19565 11.4248 5.17537 11.4592 5.15448 11.4946C5.11731 11.5576 5.0799 11.6204 5.04219 11.683C4.82062 12.0593 4.7532 12.4624 4.86355 12.8905C5.06887 13.4311 5.4359 13.6695 5.91956 13.9368C6.07752 14.0249 6.23379 14.1158 6.39026 14.2065C6.52331 14.2836 6.65652 14.3604 6.78977 14.4371C7.05305 14.5887 7.31621 14.7405 7.57935 14.8924C7.83922 15.0423 8.09912 15.1922 8.35911 15.342C8.77556 15.582 9.19157 15.8226 9.60643 16.0653C9.97581 16.2813 10.3469 16.4942 10.7187 16.7061C11.0804 16.9122 11.4405 17.1209 11.7997 17.3313C12.1051 17.5098 12.4119 17.6856 12.7193 17.8608C13.1066 18.0815 13.4926 18.3044 13.8774 18.5295C14.2967 18.7747 14.7176 19.0172 15.1385 19.2596C15.3548 19.3843 15.5711 19.5091 15.7873 19.6338C15.8736 19.6836 15.9599 19.7334 16.0463 19.7832C16.5643 20.0821 16.5643 20.0821 16.6939 20.1569C16.7798 20.2064 16.8657 20.256 16.9516 20.3055C17.1507 20.4203 17.3498 20.5353 17.5487 20.6505C17.6181 20.6908 17.6876 20.731 17.757 20.7712C17.8434 20.8212 17.9297 20.8712 18.016 20.9214C18.2266 21.0432 18.4382 21.1633 18.6513 21.281C18.6921 21.3036 18.733 21.3263 18.7751 21.3496C19.1128 21.5107 19.4577 21.5159 19.8116 21.4069C20.3418 21.2063 20.5598 20.8319 20.8271 20.3579C20.9164 20.2002 21.0074 20.0434 21.0982 19.8865C21.1752 19.7534 21.2519 19.6203 21.3286 19.4871C21.4802 19.2238 21.632 18.9606 21.7839 18.6975C21.9338 18.4376 22.0838 18.1777 22.2335 17.9177C22.4735 17.5013 22.7141 17.0853 22.9568 16.6704C23.159 16.3247 23.3586 15.9775 23.5569 15.6295C23.7553 15.2815 23.955 14.9343 24.1571 14.5885C24.1793 14.5504 24.2014 14.5123 24.2243 14.4731C24.3348 14.2833 24.4461 14.094 24.5594 13.9058C24.6162 13.8113 24.6724 13.7164 24.7286 13.6216C24.7688 13.5541 24.8097 13.4871 24.8506 13.4201C24.8748 13.3791 24.899 13.338 24.924 13.2958C24.9456 13.2597 24.9673 13.2236 24.9897 13.1865C25.0424 13.0506 25.0307 12.9798 24.9913 12.8404C24.9425 12.7325 24.9425 12.7325 24.8777 12.6268C24.854 12.5862 24.8302 12.5456 24.8057 12.5037C24.7799 12.4603 24.754 12.4169 24.7274 12.3722C24.7003 12.3262 24.6733 12.2801 24.6463 12.234C24.5902 12.1383 24.5339 12.0427 24.4775 11.9471C24.3474 11.7262 24.2201 11.5037 24.0924 11.2815C23.9025 10.9521 23.7115 10.6234 23.5196 10.2953C23.3036 9.92595 23.0907 9.55486 22.8788 9.18311C22.6716 8.81955 22.462 8.45743 22.2507 8.09622C22.0055 7.6769 21.763 7.25602 21.5205 6.83511C21.3712 6.57594 21.2217 6.31689 21.0722 6.05784C20.9445 5.83664 20.817 5.61537 20.6897 5.39398C20.366 4.83073 20.366 4.83073 20.0357 4.27133C20.0212 4.24713 20.0067 4.22293 19.9918 4.19799C19.9297 4.09039 19.9297 4.09039 19.8514 3.99491C19.7965 3.99022 19.7414 3.98823 19.6863 3.98734C19.6505 3.98667 19.6146 3.986 19.5777 3.98531C19.5379 3.98477 19.4981 3.98424 19.4571 3.98368C19.4151 3.98298 19.3732 3.98227 19.33 3.98154C19.1883 3.97922 19.0465 3.97721 18.9048 3.97521C18.8036 3.97366 18.7024 3.9721 18.6013 3.97054C17.6759 3.95674 16.7504 3.94861 15.8249 3.94209C15.7009 3.9412 15.577 3.9403 15.453 3.93938C15.4068 3.93903 15.4068 3.93903 15.3596 3.93868C14.8614 3.93489 14.3632 3.9276 13.8651 3.91897C13.3533 3.91019 12.8416 3.90506 12.3298 3.90332C12.0143 3.90213 11.699 3.89816 11.3836 3.89054C11.1411 3.885 10.899 3.88458 10.6565 3.88602C10.5575 3.88582 10.4584 3.884 10.3594 3.88038C9.55633 3.85254 9.29925 4.11424 8.98331 4.84034Z" fill="#B123FE"/>
<path d="M11.4095 5.97607C11.4885 5.9756 11.5674 5.97495 11.6464 5.97415C11.8606 5.97251 12.0747 5.97337 12.289 5.97479C12.5132 5.97595 12.7373 5.97513 12.9615 5.97461C13.338 5.97407 13.7145 5.97518 14.091 5.97724C14.5262 5.9796 14.9614 5.97925 15.3967 5.97747C15.8154 5.97582 16.2341 5.9762 16.6529 5.97746C16.831 5.97796 17.0092 5.97773 17.1874 5.97691C17.3973 5.97602 17.607 5.97691 17.8169 5.97915C17.8939 5.97969 17.9709 5.97962 18.0479 5.97889C18.6304 5.97395 18.6304 5.97395 18.7934 6.10585C18.856 6.19789 18.8969 6.28141 18.935 6.3856C18.9579 6.4242 18.9809 6.4628 19.0045 6.50257C19.0323 6.55322 19.0323 6.55322 19.0608 6.6049C19.093 6.66318 19.093 6.66318 19.126 6.72263C19.1596 6.78385 19.1596 6.78385 19.194 6.8463C19.3822 7.18545 19.5731 7.52271 19.7692 7.85735C19.963 8.18791 20.1557 8.519 20.347 8.85097C20.3718 8.89401 20.3966 8.93705 20.4221 8.98139C20.4724 9.06864 20.5227 9.15589 20.573 9.24315C20.6976 9.45946 20.8224 9.67568 20.9471 9.8919C20.9969 9.97823 21.0468 10.0646 21.0966 10.1509C21.1212 10.1936 21.1459 10.2364 21.1713 10.2804C21.3954 10.6689 21.3954 10.6689 21.4702 10.7985C21.5197 10.8844 21.5693 10.9703 21.6188 11.0561C21.7339 11.2555 21.8489 11.4549 21.9638 11.6543C22.0041 11.7241 22.0443 11.7938 22.0845 11.8636C22.1346 11.9504 22.1846 12.0373 22.2347 12.1241C22.2577 12.164 22.2807 12.2038 22.3043 12.2449C22.3265 12.2838 22.3487 12.3227 22.3716 12.3628C22.4204 12.4462 22.4713 12.5285 22.5235 12.6098C22.5498 12.6515 22.5761 12.6932 22.6032 12.7361C22.6275 12.7734 22.6518 12.8106 22.6768 12.849C22.7202 12.9599 22.7202 12.9599 22.6924 13.0848C22.6279 13.2268 22.5521 13.3598 22.4712 13.4928C22.435 13.5534 22.3988 13.6139 22.3627 13.6745C22.3432 13.707 22.3238 13.7395 22.3037 13.773C22.1931 13.9586 22.0844 14.1454 21.9756 14.3321C21.9521 14.3724 21.9286 14.4127 21.9044 14.4542C21.6302 14.9248 21.3584 15.3967 21.0866 15.8686C20.7705 16.4174 20.4536 16.9658 20.1339 17.5126C19.9042 17.906 19.6781 18.3015 19.453 18.6975C19.4267 18.6975 19.4004 18.6975 19.3733 18.6975C19.3555 18.6637 19.3377 18.6299 19.3193 18.595C18.8816 17.7632 18.8816 17.7632 18.4245 16.9419C18.2338 16.6087 18.0532 16.2714 17.877 15.9303C17.6849 15.5589 17.4844 15.1924 17.2833 14.8258C17.1758 14.6292 17.0693 14.432 16.9627 14.2349C16.7972 13.9292 16.6313 13.6237 16.4646 13.3185C16.4059 13.2108 16.3471 13.103 16.2883 12.9953C16.2441 12.9143 16.1999 12.8333 16.1557 12.7523C16.0842 12.6215 16.0129 12.4906 15.9417 12.3598C15.9195 12.3192 15.8973 12.2787 15.8745 12.2369C15.8538 12.1989 15.8332 12.1609 15.8119 12.1218C15.7936 12.0883 15.7754 12.0549 15.7566 12.0205C15.7079 11.9246 15.6678 11.8246 15.6279 11.7247C12.9061 11.7247 10.1844 11.7247 7.38013 11.7247C7.44204 11.57 7.50514 11.439 7.58744 11.2956C7.61308 11.2509 7.63871 11.2061 7.66512 11.16C7.69297 11.1117 7.72083 11.0633 7.74869 11.015C7.77756 10.9647 7.80643 10.9144 7.83529 10.8641C8.03768 10.5118 8.24192 10.1606 8.44709 9.80991C8.61718 9.51913 8.78586 9.22756 8.95398 8.93564C9.16807 8.56395 9.3835 8.19308 9.59997 7.82278C9.7239 7.61061 9.84733 7.39817 9.97001 7.18529C9.98336 7.16213 9.9967 7.13898 10.0104 7.11512C10.0748 7.0035 10.139 6.89184 10.2032 6.78015C10.2265 6.73963 10.2498 6.6991 10.2738 6.65735C10.3042 6.60451 10.3042 6.60451 10.3351 6.5506C10.3593 6.5093 10.3834 6.468 10.4083 6.42544C10.4191 6.39324 10.4298 6.36103 10.4409 6.32785C10.6174 5.89997 11.0132 5.97122 11.4095 5.97607Z" fill="white"/>
</svg>
