<svg width="15" height="15" viewBox="0 0 15 15" fill="none" xmlns="http://www.w3.org/2000/svg">
<path d="M5 0H13C14.0938 0 15 0.90625 15 2V7.625C15 7.75 14.9688 7.875 14.9375 8H12C11.4375 8 11 8.46875 11 9V11.9688C10.8438 12 10.7188 12 10.5938 12H5C3.875 12 3 11.125 3 10V2C3 0.90625 3.875 0 5 0ZM12 10V9H13H14.4062H15L12 12V11.4375V10ZM9.25 13.5C9.65625 13.5 10 13.8438 10 14.25C10 14.6875 9.65625 15 9.25 15H4.25C1.875 15 0 13.125 0 10.75V3.75C0 3.34375 0.3125 3 0.75 3C1.15625 3 1.5 3.34375 1.5 3.75V10.75C1.5 12.2812 2.71875 13.5 4.25 13.5H9.25Z" fill="#D9D9D9"/>
</svg>
