<svg width="17" height="17" viewBox="0 0 17 17" fill="none" xmlns="http://www.w3.org/2000/svg">
<path d="M11.375 0.78125C12.1562 0 13.4375 0 14.2188 0.78125L15.4375 2C16.2188 2.78125 16.2188 4.0625 15.4375 4.84375L13.9375 6.34375L9.875 2.28125L11.375 0.78125ZM9.15625 3L13.2188 7.0625L5.9375 14.3438C5.625 14.6562 5.21875 14.9062 4.78125 15.0312L1 16.1562C0.75 16.2188 0.46875 16.1562 0.28125 15.9375C0.0625 15.75 0 15.4688 0.09375 15.2188L1.1875 11.4375C1.3125 11 1.5625 10.5938 1.875 10.2812L9.15625 3Z" fill="#D9D9D9"/>
</svg>
