<svg width="47" height="41" viewBox="0 0 47 41" fill="none" xmlns="http://www.w3.org/2000/svg">
<path d="M3.51562 5.15625C3.51562 3.4375 4.45312 1.79688 6.01562 0.859375C7.5 0 9.45312 0 11.0156 0.859375C12.5 1.79688 13.5156 3.4375 13.5156 5.15625C13.5156 6.95312 12.5 8.59375 11.0156 9.53125C9.45312 10.3906 7.5 10.3906 6.01562 9.53125C4.45312 8.59375 3.51562 6.95312 3.51562 5.15625ZM0.46875 18.4375C0.78125 15.1562 3.51562 12.6562 6.71875 12.6562H10.2344C12.3438 12.6562 14.2188 13.75 15.3125 15.3906C15.1562 15.4688 14.9219 15.7031 14.7656 15.8594L9.76562 20.8594C8.04688 22.5781 8.04688 25.3125 9.76562 27.0312L13.5156 30.7812V36.4062C13.5156 38.5156 11.7969 40.1562 9.76562 40.1562H7.26562C5.15625 40.1562 3.51562 38.5156 3.51562 36.4062V27.4219C1.40625 26.6406 0 24.6094 0.15625 22.2656L0.46875 18.4375ZM33.5156 5.15625C33.5156 3.4375 34.4531 1.79688 36.0156 0.859375C37.5 0 39.4531 0 41.0156 0.859375C42.5 1.79688 43.5156 3.4375 43.5156 5.15625C43.5156 6.95312 42.5 8.59375 41.0156 9.53125C39.4531 10.3906 37.5 10.3906 36.0156 9.53125C34.4531 8.59375 33.5156 6.95312 33.5156 5.15625ZM32.1875 15.8594C32.0312 15.7031 31.7969 15.4688 31.6406 15.3906C32.7344 13.75 34.6094 12.6562 36.7188 12.6562H40.2344C43.5156 12.6562 46.1719 15.1562 46.4844 18.4375L46.7969 22.2656C46.9531 24.6094 45.5469 26.6406 43.5156 27.4219V36.4062C43.5156 38.5156 41.7969 40.1562 39.7656 40.1562H37.2656C35.1562 40.1562 33.5156 38.5156 33.5156 36.4062V30.7812L37.1875 27.0312C38.9062 25.3125 38.9062 22.5781 37.1875 20.8594L32.1875 15.8594ZM19.7656 18.9062V21.4062H27.2656V18.9062C27.2656 18.2031 27.6562 17.5 28.3594 17.1875C29.0625 16.9531 29.9219 17.1094 30.4688 17.5781L35.4688 22.5781C36.1719 23.3594 36.1719 24.5312 35.4688 25.2344L30.4688 30.2344C29.9219 30.7812 29.0625 30.9375 28.3594 30.7031C27.6562 30.3906 27.2656 29.6875 27.2656 28.9062V26.4062H19.7656V28.9062C19.7656 29.6875 19.2969 30.3906 18.5938 30.7031C17.8906 30.9375 17.0312 30.7812 16.5625 30.2344L11.5625 25.2344C10.7812 24.5312 10.7812 23.3594 11.5625 22.6562L16.5625 17.6562C17.0312 17.1094 17.8906 16.9531 18.5938 17.1875C19.2969 17.5 19.7656 18.2031 19.7656 18.9844V18.9062Z" fill="#F8F9FA"/>
</svg>
