<svg width="17" height="17" viewBox="0 0 17 17" fill="none" xmlns="http://www.w3.org/2000/svg">
<path d="M11.7188 8.71875L15.2188 10.2188C15.7812 10.4375 16.0938 11.0312 15.9688 11.625L15.2188 15.125C15.0938 15.6875 14.5625 16.125 14 16.125C13.7812 16.125 13.5938 16.0938 13.4062 16.0938C13.0938 16.0938 12.7812 16.0625 12.5 16.0312C5.46875 15.2812 0 9.34375 0 2.09375C0 1.53125 0.40625 1 0.96875 0.875L4.46875 0.125C5.0625 0 5.65625 0.3125 5.875 0.875L7.375 4.375C7.59375 4.875 7.46875 5.46875 7.03125 5.8125L5.75 6.875C6.59375 8.3125 7.78125 9.5 9.21875 10.3438L10.2812 9.0625C10.625 8.625 11.2188 8.5 11.7188 8.71875ZM13.7812 14.5938L14.4375 11.5L11.3125 10.1562L10.4062 11.2812C9.9375 11.8438 9.125 12 8.46875 11.625C6.8125 10.6562 5.4375 9.28125 4.46875 7.625C4.09375 6.96875 4.25 6.15625 4.8125 5.6875L5.9375 4.78125L4.59375 1.65625L1.5 2.3125C1.59375 9.0625 7.03125 14.5 13.7812 14.5938Z" fill="white"/>
</svg>
