<svg width="50" height="50" viewBox="0 0 50 50" fill="none" xmlns="http://www.w3.org/2000/svg">
<path d="M24.9997 8.33331C26.1503 8.33331 27.083 9.26605 27.083 10.4166V22.9167H39.583C40.7336 22.9167 41.6663 23.8494 41.6663 25C41.6663 26.1506 40.7336 27.0833 39.583 27.0833H27.083V39.5833C27.083 40.7339 26.1503 41.6666 24.9997 41.6666C23.8491 41.6666 22.9163 40.7339 22.9163 39.5833V27.0833H10.4163C9.26575 27.0833 8.33301 26.1506 8.33301 25C8.33301 23.8494 9.26575 22.9167 10.4163 22.9167H22.9163V10.4166C22.9163 9.26605 23.8491 8.33331 24.9997 8.33331Z" fill="#E7E7E7"/>
</svg>
