<?xml version="1.0" encoding="UTF-8"?>
<svg width="40px" height="40px" viewBox="0 0 40 40" version="1.1" xmlns="http://www.w3.org/2000/svg" xmlns:xlink="http://www.w3.org/1999/xlink">
    <title>Traditional BPO Icon</title>
    <g id="Icons" stroke="none" stroke-width="1" fill="none" fill-rule="evenodd">
        <g id="traditional-bpo-icon" fill="#666666">
            <path d="M20,4 C27.732,4 34,10.268 34,18 C34,25.732 27.732,32 20,32 C12.268,32 6,25.732 6,18 C6,10.268 12.268,4 20,4 Z M20,8 C14.477,8 10,12.477 10,18 C10,23.523 14.477,28 20,28 C25.523,28 30,23.523 30,18 C30,12.477 25.523,8 20,8 Z M20,12 C23.314,12 26,14.686 26,18 C26,21.314 23.314,24 20,24 C16.686,24 14,21.314 14,18 C14,14.686 16.686,12 20,12 Z M20,16 C18.895,16 18,16.895 18,18 C18,19.105 18.895,20 20,20 C21.105,20 22,19.105 22,18 C22,16.895 21.105,16 20,16 Z" id="Combined-Shape"></path>
        </g>
    </g>
</svg>
