<svg width="50" height="40" viewBox="0 0 50 40" fill="none" xmlns="http://www.w3.org/2000/svg">
<path d="M11.25 0C13.4375 0 15.4688 1.25 16.6406 3.125C17.7344 5.07812 17.7344 7.5 16.6406 9.375C15.4688 11.3281 13.4375 12.5 11.25 12.5C8.98438 12.5 6.95312 11.3281 5.78125 9.375C4.6875 7.5 4.6875 5.07812 5.78125 3.125C6.95312 1.25 8.98438 0 11.25 0ZM40 0C42.1875 0 44.2188 1.25 45.3906 3.125C46.4844 5.07812 46.4844 7.5 45.3906 9.375C44.2188 11.3281 42.1875 12.5 40 12.5C37.7344 12.5 35.7031 11.3281 34.5312 9.375C33.4375 7.5 33.4375 5.07812 34.5312 3.125C35.7031 1.25 37.7344 0 40 0ZM0 23.3594C0 18.75 3.67188 15 8.28125 15H11.6406C12.8906 15 14.0625 15.3125 15.1562 15.7812C15 16.3281 15 16.9531 15 17.5C15 20.5469 16.25 23.2031 18.3594 25C18.3594 25 18.3594 25 18.2812 25H1.64062C0.703125 25 0 24.2969 0 23.3594ZM31.6406 25H31.5625C33.6719 23.2031 34.9219 20.5469 34.9219 17.5C34.9219 16.9531 34.9219 16.3281 34.8438 15.7812C35.8594 15.3125 37.0312 15 38.2812 15H41.6406C46.25 15 50 18.75 50 23.3594C50 24.2969 49.2188 25 48.2812 25H31.6406ZM17.5 17.5C17.5 14.8438 18.9062 12.4219 21.25 11.0156C23.5156 9.6875 26.4062 9.6875 28.75 11.0156C31.0156 12.4219 32.5 14.8438 32.5 17.5C32.5 20.2344 31.0156 22.6562 28.75 24.0625C26.4062 25.3906 23.5156 25.3906 21.25 24.0625C18.9062 22.6562 17.5 20.2344 17.5 17.5ZM10 37.9688C10 32.1875 14.6094 27.5 20.3906 27.5H29.5312C35.3125 27.5 40 32.1875 40 37.9688C40 39.0625 39.0625 40 37.8906 40H12.0312C10.9375 40 10 39.1406 10 37.9688Z" fill="#495057"/>
</svg>
