<svg width="39" height="32" viewBox="0 0 39 32" fill="none" xmlns="http://www.w3.org/2000/svg">
<path d="M11.3844 0.000490975H0L13.5462 23.5598L15.4502 26.9367L16.3824 28.5363C16.9082 29.4406 17.2462 29.9133 17.9889 30.6494C18.8284 31.2361 19.3461 31.5087 20.3094 31.8935C21.1324 32.0356 21.6102 32.0354 22.4514 31.8935C23.384 31.6131 23.8909 31.3899 24.7521 30.8271C25.5422 30.29 25.9237 29.8575 26.5173 28.872L31.1385 20.8939L32.1897 18.6031C31.4716 19.1465 31.0924 19.4489 30.246 20.0052C30.0078 20.1955 29.8313 20.2543 29.5209 20.3577L29.5121 20.3607C28.4698 20.6142 27.8504 20.662 26.676 20.3607C26.0329 20.1742 25.6858 20.0215 25.0893 19.6695C24.1837 19.0276 23.762 18.5922 23.1258 17.7144L14.3594 2.86395C13.1816 0.876955 11.9394 -0.0241356 11.3844 0.000490975Z" fill="white"/>
<path d="M35.0258 0.000482128H24.0381L26.6363 4.97697C27.6421 6.85361 28.1917 7.77496 29.2345 9.08455C30.4137 10.3215 31.132 10.8243 32.7053 11.1383C33.1771 11.1826 33.4402 11.2146 33.935 11.1383C36.5594 10.7276 37.7171 9.77597 38.7149 7.26774C39.1502 6.04986 39.0357 5.15777 38.7149 3.67361C38.0337 1.65199 37.3337 0.753585 35.0258 0.000482128Z" fill="white"/>
</svg>
